G04 #@! TF.GenerationSoftware,KiCad,Pcbnew,5.1.6-c6e7f7d~86~ubuntu19.10.1*
G04 #@! TF.CreationDate,2020-05-26T12:51:18-04:00*
G04 #@! TF.ProjectId,emmon,656d6d6f-6e2e-46b6-9963-61645f706362,rev?*
G04 #@! TF.SameCoordinates,Original*
G04 #@! TF.FileFunction,Copper,L2,Bot*
G04 #@! TF.FilePolarity,Positive*
%FSLAX46Y46*%
G04 Gerber Fmt 4.6, Leading zero omitted, Abs format (unit mm)*
G04 Created by KiCad (PCBNEW 5.1.6-c6e7f7d~86~ubuntu19.10.1) date 2020-05-26 12:51:18*
%MOMM*%
%LPD*%
G01*
G04 APERTURE LIST*
G04 #@! TA.AperFunction,ComponentPad*
%ADD10O,1.700000X1.700000*%
G04 #@! TD*
G04 #@! TA.AperFunction,ComponentPad*
%ADD11R,1.700000X1.700000*%
G04 #@! TD*
G04 #@! TA.AperFunction,ComponentPad*
%ADD12R,3.500000X3.500000*%
G04 #@! TD*
G04 #@! TA.AperFunction,SMDPad,CuDef*
%ADD13R,2.600000X3.600000*%
G04 #@! TD*
G04 #@! TA.AperFunction,ViaPad*
%ADD14C,2.000000*%
G04 #@! TD*
G04 #@! TA.AperFunction,Conductor*
%ADD15C,0.457200*%
G04 #@! TD*
G04 #@! TA.AperFunction,Conductor*
%ADD16C,0.304800*%
G04 #@! TD*
G04 #@! TA.AperFunction,Conductor*
%ADD17C,0.203200*%
G04 #@! TD*
G04 APERTURE END LIST*
D10*
X147320000Y-115570000D03*
X144780000Y-115570000D03*
X147320000Y-113030000D03*
X144780000Y-113030000D03*
X147320000Y-110490000D03*
D11*
X144780000Y-110490000D03*
G04 #@! TA.AperFunction,ComponentPad*
G36*
G01*
X97802500Y-116382500D02*
X97802500Y-114632500D01*
G75*
G02*
X98677500Y-113757500I875000J0D01*
G01*
X100427500Y-113757500D01*
G75*
G02*
X101302500Y-114632500I0J-875000D01*
G01*
X101302500Y-116382500D01*
G75*
G02*
X100427500Y-117257500I-875000J0D01*
G01*
X98677500Y-117257500D01*
G75*
G02*
X97802500Y-116382500I0J875000D01*
G01*
G37*
G04 #@! TD.AperFunction*
G04 #@! TA.AperFunction,ComponentPad*
G36*
G01*
X95052500Y-111807500D02*
X95052500Y-109807500D01*
G75*
G02*
X95802500Y-109057500I750000J0D01*
G01*
X97302500Y-109057500D01*
G75*
G02*
X98052500Y-109807500I0J-750000D01*
G01*
X98052500Y-111807500D01*
G75*
G02*
X97302500Y-112557500I-750000J0D01*
G01*
X95802500Y-112557500D01*
G75*
G02*
X95052500Y-111807500I0J750000D01*
G01*
G37*
G04 #@! TD.AperFunction*
D12*
X102552500Y-110807500D03*
D13*
X134665000Y-100330000D03*
X105365000Y-100330000D03*
D14*
X136525000Y-106997500D03*
X105410000Y-106362500D03*
X140335000Y-106997500D03*
X143192500Y-90487500D03*
X140335000Y-115570000D03*
X148300913Y-107632500D03*
X116522500Y-88900000D03*
X143192500Y-101917500D03*
X146050000Y-106045000D03*
X122237500Y-101917500D03*
X116522500Y-92392500D03*
X122237500Y-98742500D03*
X116522500Y-94932500D03*
X122237500Y-96202500D03*
X116522500Y-97472500D03*
X95250000Y-94932500D03*
X122237500Y-93662500D03*
X122237500Y-88900000D03*
X103822500Y-116522500D03*
X143192500Y-87312500D03*
D15*
X134665000Y-100330000D02*
X134665000Y-105137500D01*
X134665000Y-105137500D02*
X136525000Y-106997500D01*
D16*
X105365000Y-100330000D02*
X105365000Y-106317500D01*
X105365000Y-106317500D02*
X105410000Y-106362500D01*
X144497301Y-91792301D02*
X143192500Y-90487500D01*
X142240000Y-113030000D02*
X142240000Y-105410000D01*
X144780000Y-115570000D02*
X142240000Y-113030000D01*
X142240000Y-105410000D02*
X144780000Y-102870000D01*
X144780000Y-102870000D02*
X144780000Y-92075000D01*
X144780000Y-92075000D02*
X144497301Y-91792301D01*
X140335000Y-115570000D02*
X144780000Y-115570000D01*
D15*
X148300913Y-109509087D02*
X147320000Y-110490000D01*
X148300913Y-107632500D02*
X148300913Y-109509087D01*
D16*
X116522500Y-88900000D02*
X119380000Y-88900000D01*
X119380000Y-88900000D02*
X122237500Y-91757500D01*
X133032500Y-91757500D02*
X122237500Y-91757500D01*
X143192500Y-101917500D02*
X133032500Y-91757500D01*
X146066689Y-111776689D02*
X147320000Y-113030000D01*
X146066689Y-110824189D02*
X146066689Y-111776689D01*
X146050000Y-110807500D02*
X146066689Y-110824189D01*
X146050000Y-106045000D02*
X146050000Y-110807500D01*
X114935000Y-93980000D02*
X116522500Y-92392500D01*
X114935000Y-98742500D02*
X114935000Y-93980000D01*
X122237500Y-101917500D02*
X118110000Y-101917500D01*
X118110000Y-101917500D02*
X114935000Y-98742500D01*
X120332500Y-98742500D02*
X122237500Y-98742500D01*
X116522500Y-94932500D02*
X120332500Y-98742500D01*
X116522500Y-97472500D02*
X119380000Y-100330000D01*
X119380000Y-100330000D02*
X123190000Y-100330000D01*
X123190000Y-100330000D02*
X123825000Y-99695000D01*
X123825000Y-97790000D02*
X122237500Y-96202500D01*
X123825000Y-99695000D02*
X123825000Y-97790000D01*
X122237500Y-93662500D02*
X119380000Y-90805000D01*
X99377500Y-90805000D02*
X95250000Y-94932500D01*
X119380000Y-90805000D02*
X99377500Y-90805000D01*
X143827500Y-88900000D02*
X122237500Y-88900000D01*
X143192500Y-111442500D02*
X143192500Y-105410000D01*
X145732500Y-102870000D02*
X145732500Y-90805000D01*
X144780000Y-113030000D02*
X143192500Y-111442500D01*
X143192500Y-105410000D02*
X145732500Y-102870000D01*
X145732500Y-90805000D02*
X143827500Y-88900000D01*
D15*
X102552500Y-115252500D02*
X103822500Y-116522500D01*
X102552500Y-110807500D02*
X102552500Y-115252500D01*
D16*
X144462500Y-87312500D02*
X143192500Y-87312500D01*
X144462500Y-106997500D02*
X144462500Y-105555599D01*
X144780000Y-107315000D02*
X144462500Y-106997500D01*
X144462500Y-105555599D02*
X146685000Y-103333099D01*
X146685000Y-103333099D02*
X146685000Y-89535000D01*
X146685000Y-89535000D02*
X144462500Y-87312500D01*
X144780000Y-110490000D02*
X144780000Y-107315000D01*
D17*
G36*
X149457491Y-106928987D02*
G01*
X149351476Y-106770325D01*
X149163088Y-106581937D01*
X148941567Y-106433921D01*
X148695426Y-106331966D01*
X148434124Y-106279990D01*
X148167702Y-106279990D01*
X147906400Y-106331966D01*
X147660259Y-106433921D01*
X147438738Y-106581937D01*
X147250350Y-106770325D01*
X147102334Y-106991846D01*
X147000379Y-107237987D01*
X146948403Y-107499289D01*
X146948403Y-107765711D01*
X147000379Y-108027013D01*
X147102334Y-108273154D01*
X147250350Y-108494675D01*
X147438738Y-108683063D01*
X147660259Y-108831079D01*
X147719804Y-108855743D01*
X147719804Y-109268383D01*
X147657185Y-109331002D01*
X147438437Y-109287490D01*
X147201563Y-109287490D01*
X146969241Y-109333702D01*
X146750398Y-109424350D01*
X146554910Y-109554971D01*
X146554910Y-107299806D01*
X146690654Y-107243579D01*
X146912175Y-107095563D01*
X147100563Y-106907175D01*
X147248579Y-106685654D01*
X147350534Y-106439513D01*
X147402510Y-106178211D01*
X147402510Y-105911789D01*
X147350534Y-105650487D01*
X147248579Y-105404346D01*
X147100563Y-105182825D01*
X146912175Y-104994437D01*
X146690654Y-104846421D01*
X146444513Y-104744466D01*
X146183211Y-104692490D01*
X146039659Y-104692490D01*
X147024481Y-103707668D01*
X147043753Y-103691852D01*
X147106849Y-103614969D01*
X147153733Y-103527255D01*
X147182604Y-103432079D01*
X147189910Y-103357902D01*
X147189910Y-103357901D01*
X147192353Y-103333099D01*
X147189910Y-103308296D01*
X147189910Y-89559803D01*
X147192353Y-89535000D01*
X147182604Y-89436020D01*
X147153733Y-89340844D01*
X147143580Y-89321849D01*
X147106849Y-89253130D01*
X147043753Y-89176247D01*
X147024481Y-89160431D01*
X144837074Y-86973025D01*
X144821253Y-86953747D01*
X144744370Y-86890651D01*
X144656656Y-86843767D01*
X144561480Y-86814896D01*
X144487303Y-86807590D01*
X144462500Y-86805147D01*
X144446929Y-86806681D01*
X144391079Y-86671846D01*
X144243063Y-86450325D01*
X144054675Y-86261937D01*
X143833154Y-86113921D01*
X143587013Y-86011966D01*
X143325711Y-85959990D01*
X143059289Y-85959990D01*
X142797987Y-86011966D01*
X142551846Y-86113921D01*
X142330325Y-86261937D01*
X142141937Y-86450325D01*
X141993921Y-86671846D01*
X141891966Y-86917987D01*
X141839990Y-87179289D01*
X141839990Y-87445711D01*
X141891966Y-87707013D01*
X141993921Y-87953154D01*
X142141937Y-88174675D01*
X142330325Y-88363063D01*
X142378257Y-88395090D01*
X123492306Y-88395090D01*
X123436079Y-88259346D01*
X123288063Y-88037825D01*
X123099675Y-87849437D01*
X122878154Y-87701421D01*
X122632013Y-87599466D01*
X122370711Y-87547490D01*
X122104289Y-87547490D01*
X121842987Y-87599466D01*
X121596846Y-87701421D01*
X121375325Y-87849437D01*
X121186937Y-88037825D01*
X121038921Y-88259346D01*
X120936966Y-88505487D01*
X120884990Y-88766789D01*
X120884990Y-89033211D01*
X120936966Y-89294513D01*
X121038921Y-89540654D01*
X121186937Y-89762175D01*
X121375325Y-89950563D01*
X121596846Y-90098579D01*
X121842987Y-90200534D01*
X122104289Y-90252510D01*
X122370711Y-90252510D01*
X122632013Y-90200534D01*
X122878154Y-90098579D01*
X123099675Y-89950563D01*
X123288063Y-89762175D01*
X123436079Y-89540654D01*
X123492306Y-89404910D01*
X142378257Y-89404910D01*
X142330325Y-89436937D01*
X142141937Y-89625325D01*
X141993921Y-89846846D01*
X141891966Y-90092987D01*
X141839990Y-90354289D01*
X141839990Y-90620711D01*
X141891966Y-90882013D01*
X141993921Y-91128154D01*
X142141937Y-91349675D01*
X142330325Y-91538063D01*
X142551846Y-91686079D01*
X142797987Y-91788034D01*
X143059289Y-91840010D01*
X143325711Y-91840010D01*
X143587013Y-91788034D01*
X143722757Y-91731807D01*
X144157813Y-92166864D01*
X144157824Y-92166873D01*
X144275091Y-92284140D01*
X144275090Y-101103257D01*
X144243063Y-101055325D01*
X144054675Y-100866937D01*
X143833154Y-100718921D01*
X143587013Y-100616966D01*
X143325711Y-100564990D01*
X143059289Y-100564990D01*
X142797987Y-100616966D01*
X142662243Y-100673193D01*
X133407074Y-91418025D01*
X133391253Y-91398747D01*
X133314370Y-91335651D01*
X133226656Y-91288767D01*
X133131480Y-91259896D01*
X133057303Y-91252590D01*
X133032500Y-91250147D01*
X133007697Y-91252590D01*
X122446641Y-91252590D01*
X119754574Y-88560525D01*
X119738753Y-88541247D01*
X119661870Y-88478151D01*
X119574156Y-88431267D01*
X119478980Y-88402396D01*
X119404803Y-88395090D01*
X119380000Y-88392647D01*
X119355197Y-88395090D01*
X117777306Y-88395090D01*
X117721079Y-88259346D01*
X117573063Y-88037825D01*
X117384675Y-87849437D01*
X117163154Y-87701421D01*
X116917013Y-87599466D01*
X116655711Y-87547490D01*
X116389289Y-87547490D01*
X116127987Y-87599466D01*
X115881846Y-87701421D01*
X115660325Y-87849437D01*
X115471937Y-88037825D01*
X115323921Y-88259346D01*
X115221966Y-88505487D01*
X115169990Y-88766789D01*
X115169990Y-89033211D01*
X115221966Y-89294513D01*
X115323921Y-89540654D01*
X115471937Y-89762175D01*
X115660325Y-89950563D01*
X115881846Y-90098579D01*
X116127987Y-90200534D01*
X116389289Y-90252510D01*
X116655711Y-90252510D01*
X116917013Y-90200534D01*
X117163154Y-90098579D01*
X117384675Y-89950563D01*
X117573063Y-89762175D01*
X117721079Y-89540654D01*
X117777306Y-89404910D01*
X119170861Y-89404910D01*
X121862935Y-92096986D01*
X121878747Y-92116253D01*
X121955630Y-92179349D01*
X122043344Y-92226233D01*
X122138519Y-92255104D01*
X122237499Y-92264853D01*
X122262302Y-92262410D01*
X132823361Y-92262410D01*
X141948193Y-101387243D01*
X141891966Y-101522987D01*
X141839990Y-101784289D01*
X141839990Y-102050711D01*
X141891966Y-102312013D01*
X141993921Y-102558154D01*
X142141937Y-102779675D01*
X142330325Y-102968063D01*
X142551846Y-103116079D01*
X142797987Y-103218034D01*
X143059289Y-103270010D01*
X143325711Y-103270010D01*
X143587013Y-103218034D01*
X143810478Y-103125472D01*
X141900520Y-105035431D01*
X141881248Y-105051247D01*
X141818152Y-105128130D01*
X141813144Y-105137500D01*
X141771267Y-105215845D01*
X141742396Y-105311020D01*
X141732647Y-105410000D01*
X141735091Y-105434813D01*
X141735090Y-113005197D01*
X141732647Y-113030000D01*
X141735090Y-113054802D01*
X141742396Y-113128979D01*
X141771267Y-113224155D01*
X141818151Y-113311870D01*
X141881247Y-113388753D01*
X141900525Y-113404574D01*
X143561040Y-115065090D01*
X141589806Y-115065090D01*
X141533579Y-114929346D01*
X141385563Y-114707825D01*
X141197175Y-114519437D01*
X140975654Y-114371421D01*
X140729513Y-114269466D01*
X140468211Y-114217490D01*
X140201789Y-114217490D01*
X139940487Y-114269466D01*
X139694346Y-114371421D01*
X139472825Y-114519437D01*
X139284437Y-114707825D01*
X139136421Y-114929346D01*
X139034466Y-115175487D01*
X138982490Y-115436789D01*
X138982490Y-115703211D01*
X139034466Y-115964513D01*
X139136421Y-116210654D01*
X139284437Y-116432175D01*
X139472825Y-116620563D01*
X139694346Y-116768579D01*
X139940487Y-116870534D01*
X140201789Y-116922510D01*
X140468211Y-116922510D01*
X140729513Y-116870534D01*
X140975654Y-116768579D01*
X141197175Y-116620563D01*
X141385563Y-116432175D01*
X141533579Y-116210654D01*
X141589806Y-116074910D01*
X143687554Y-116074910D01*
X143714350Y-116139602D01*
X143845950Y-116336555D01*
X144013445Y-116504050D01*
X144210398Y-116635650D01*
X144429241Y-116726298D01*
X144661563Y-116772510D01*
X144898437Y-116772510D01*
X145130759Y-116726298D01*
X145349602Y-116635650D01*
X145546555Y-116504050D01*
X145714050Y-116336555D01*
X145845650Y-116139602D01*
X145936298Y-115920759D01*
X145938913Y-115907608D01*
X146162635Y-115907608D01*
X146170115Y-115932289D01*
X146262889Y-116149659D01*
X146396287Y-116344753D01*
X146565183Y-116510074D01*
X146763086Y-116639268D01*
X146982391Y-116727371D01*
X147167600Y-116677036D01*
X147167600Y-115722400D01*
X147472400Y-115722400D01*
X147472400Y-116677036D01*
X147657609Y-116727371D01*
X147876914Y-116639268D01*
X148074817Y-116510074D01*
X148243713Y-116344753D01*
X148377111Y-116149659D01*
X148469885Y-115932289D01*
X148477365Y-115907608D01*
X148426252Y-115722400D01*
X147472400Y-115722400D01*
X147167600Y-115722400D01*
X146213748Y-115722400D01*
X146162635Y-115907608D01*
X145938913Y-115907608D01*
X145982510Y-115688437D01*
X145982510Y-115451563D01*
X145938914Y-115232392D01*
X146162635Y-115232392D01*
X146213748Y-115417600D01*
X147167600Y-115417600D01*
X147167600Y-114462964D01*
X147472400Y-114462964D01*
X147472400Y-115417600D01*
X148426252Y-115417600D01*
X148477365Y-115232392D01*
X148469885Y-115207711D01*
X148377111Y-114990341D01*
X148243713Y-114795247D01*
X148074817Y-114629926D01*
X147876914Y-114500732D01*
X147657609Y-114412629D01*
X147472400Y-114462964D01*
X147167600Y-114462964D01*
X146982391Y-114412629D01*
X146763086Y-114500732D01*
X146565183Y-114629926D01*
X146396287Y-114795247D01*
X146262889Y-114990341D01*
X146170115Y-115207711D01*
X146162635Y-115232392D01*
X145938914Y-115232392D01*
X145936298Y-115219241D01*
X145845650Y-115000398D01*
X145714050Y-114803445D01*
X145546555Y-114635950D01*
X145349602Y-114504350D01*
X145130759Y-114413702D01*
X144898437Y-114367490D01*
X144661563Y-114367490D01*
X144429241Y-114413702D01*
X144364549Y-114440498D01*
X142744910Y-112820861D01*
X142744910Y-111676211D01*
X142770651Y-111724370D01*
X142833747Y-111801253D01*
X142853025Y-111817074D01*
X143650499Y-112614548D01*
X143623702Y-112679241D01*
X143577490Y-112911563D01*
X143577490Y-113148437D01*
X143623702Y-113380759D01*
X143714350Y-113599602D01*
X143845950Y-113796555D01*
X144013445Y-113964050D01*
X144210398Y-114095650D01*
X144429241Y-114186298D01*
X144661563Y-114232510D01*
X144898437Y-114232510D01*
X145130759Y-114186298D01*
X145349602Y-114095650D01*
X145546555Y-113964050D01*
X145714050Y-113796555D01*
X145845650Y-113599602D01*
X145936298Y-113380759D01*
X145982510Y-113148437D01*
X145982510Y-112911563D01*
X145936298Y-112679241D01*
X145845650Y-112460398D01*
X145714050Y-112263445D01*
X145546555Y-112095950D01*
X145349602Y-111964350D01*
X145130759Y-111873702D01*
X144898437Y-111827490D01*
X144661563Y-111827490D01*
X144429241Y-111873702D01*
X144364548Y-111900499D01*
X144158264Y-111694215D01*
X145561780Y-111694215D01*
X145561780Y-111751876D01*
X145559336Y-111776689D01*
X145569085Y-111875669D01*
X145597956Y-111970844D01*
X145597957Y-111970845D01*
X145644841Y-112058559D01*
X145707937Y-112135442D01*
X145727209Y-112151258D01*
X146190499Y-112614548D01*
X146163702Y-112679241D01*
X146117490Y-112911563D01*
X146117490Y-113148437D01*
X146163702Y-113380759D01*
X146254350Y-113599602D01*
X146385950Y-113796555D01*
X146553445Y-113964050D01*
X146750398Y-114095650D01*
X146969241Y-114186298D01*
X147201563Y-114232510D01*
X147438437Y-114232510D01*
X147670759Y-114186298D01*
X147889602Y-114095650D01*
X148086555Y-113964050D01*
X148254050Y-113796555D01*
X148385650Y-113599602D01*
X148476298Y-113380759D01*
X148522510Y-113148437D01*
X148522510Y-112911563D01*
X148476298Y-112679241D01*
X148385650Y-112460398D01*
X148254050Y-112263445D01*
X148086555Y-112095950D01*
X147889602Y-111964350D01*
X147670759Y-111873702D01*
X147438437Y-111827490D01*
X147201563Y-111827490D01*
X146969241Y-111873702D01*
X146904548Y-111900499D01*
X146571599Y-111567550D01*
X146571599Y-111436180D01*
X146750398Y-111555650D01*
X146969241Y-111646298D01*
X147201563Y-111692510D01*
X147438437Y-111692510D01*
X147670759Y-111646298D01*
X147889602Y-111555650D01*
X148086555Y-111424050D01*
X148254050Y-111256555D01*
X148385650Y-111059602D01*
X148476298Y-110840759D01*
X148522510Y-110608437D01*
X148522510Y-110371563D01*
X148478998Y-110152815D01*
X148691643Y-109940170D01*
X148713807Y-109921981D01*
X148731996Y-109899818D01*
X148732000Y-109899814D01*
X148752332Y-109875039D01*
X148786426Y-109833496D01*
X148840386Y-109732544D01*
X148858146Y-109673994D01*
X148873614Y-109623006D01*
X148874678Y-109612199D01*
X148882023Y-109537627D01*
X148882023Y-109537613D01*
X148884832Y-109509088D01*
X148882023Y-109480563D01*
X148882023Y-108855743D01*
X148941567Y-108831079D01*
X149163088Y-108683063D01*
X149351476Y-108494675D01*
X149457491Y-108336013D01*
X149457491Y-118342490D01*
X91842510Y-118342490D01*
X91842510Y-117257500D01*
X97445179Y-117257500D01*
X97452045Y-117327210D01*
X97472378Y-117394241D01*
X97505398Y-117456017D01*
X97549836Y-117510164D01*
X97603983Y-117554602D01*
X97665759Y-117587622D01*
X97732790Y-117607955D01*
X97802500Y-117614821D01*
X99311200Y-117613100D01*
X99400100Y-117524200D01*
X99400100Y-115659900D01*
X99704900Y-115659900D01*
X99704900Y-117524200D01*
X99793800Y-117613100D01*
X101302500Y-117614821D01*
X101372210Y-117607955D01*
X101439241Y-117587622D01*
X101501017Y-117554602D01*
X101555164Y-117510164D01*
X101599602Y-117456017D01*
X101632622Y-117394241D01*
X101652955Y-117327210D01*
X101659821Y-117257500D01*
X101658100Y-115748800D01*
X101569200Y-115659900D01*
X99704900Y-115659900D01*
X99400100Y-115659900D01*
X97535800Y-115659900D01*
X97446900Y-115748800D01*
X97445179Y-117257500D01*
X91842510Y-117257500D01*
X91842510Y-113757500D01*
X97445179Y-113757500D01*
X97446900Y-115266200D01*
X97535800Y-115355100D01*
X99400100Y-115355100D01*
X99400100Y-113490800D01*
X99704900Y-113490800D01*
X99704900Y-115355100D01*
X101569200Y-115355100D01*
X101658100Y-115266200D01*
X101659821Y-113757500D01*
X101652955Y-113687790D01*
X101632622Y-113620759D01*
X101599602Y-113558983D01*
X101555164Y-113504836D01*
X101501017Y-113460398D01*
X101439241Y-113427378D01*
X101372210Y-113407045D01*
X101302500Y-113400179D01*
X99793800Y-113401900D01*
X99704900Y-113490800D01*
X99400100Y-113490800D01*
X99311200Y-113401900D01*
X97802500Y-113400179D01*
X97732790Y-113407045D01*
X97665759Y-113427378D01*
X97603983Y-113460398D01*
X97549836Y-113504836D01*
X97505398Y-113558983D01*
X97472378Y-113620759D01*
X97452045Y-113687790D01*
X97445179Y-113757500D01*
X91842510Y-113757500D01*
X91842510Y-112557500D01*
X94695179Y-112557500D01*
X94702045Y-112627210D01*
X94722378Y-112694241D01*
X94755398Y-112756017D01*
X94799836Y-112810164D01*
X94853983Y-112854602D01*
X94915759Y-112887622D01*
X94982790Y-112907955D01*
X95052500Y-112914821D01*
X96311200Y-112913100D01*
X96400100Y-112824200D01*
X96400100Y-110959900D01*
X96704900Y-110959900D01*
X96704900Y-112824200D01*
X96793800Y-112913100D01*
X98052500Y-112914821D01*
X98122210Y-112907955D01*
X98189241Y-112887622D01*
X98251017Y-112854602D01*
X98305164Y-112810164D01*
X98349602Y-112756017D01*
X98382622Y-112694241D01*
X98402955Y-112627210D01*
X98409821Y-112557500D01*
X98408100Y-111048800D01*
X98319200Y-110959900D01*
X96704900Y-110959900D01*
X96400100Y-110959900D01*
X94785800Y-110959900D01*
X94696900Y-111048800D01*
X94695179Y-112557500D01*
X91842510Y-112557500D01*
X91842510Y-109057500D01*
X94695179Y-109057500D01*
X94696900Y-110566200D01*
X94785800Y-110655100D01*
X96400100Y-110655100D01*
X96400100Y-108790800D01*
X96704900Y-108790800D01*
X96704900Y-110655100D01*
X98319200Y-110655100D01*
X98408100Y-110566200D01*
X98409821Y-109057500D01*
X100448285Y-109057500D01*
X100448285Y-112557500D01*
X100455091Y-112626604D01*
X100475248Y-112693052D01*
X100507981Y-112754291D01*
X100552032Y-112807968D01*
X100605709Y-112852019D01*
X100666948Y-112884752D01*
X100733396Y-112904909D01*
X100802500Y-112911715D01*
X101971390Y-112911715D01*
X101971391Y-115223957D01*
X101968580Y-115252500D01*
X101979799Y-115366417D01*
X102005628Y-115451563D01*
X102013028Y-115475957D01*
X102066988Y-115576909D01*
X102139607Y-115665394D01*
X102161775Y-115683587D01*
X102546630Y-116068443D01*
X102521966Y-116127987D01*
X102469990Y-116389289D01*
X102469990Y-116655711D01*
X102521966Y-116917013D01*
X102623921Y-117163154D01*
X102771937Y-117384675D01*
X102960325Y-117573063D01*
X103181846Y-117721079D01*
X103427987Y-117823034D01*
X103689289Y-117875010D01*
X103955711Y-117875010D01*
X104217013Y-117823034D01*
X104463154Y-117721079D01*
X104684675Y-117573063D01*
X104873063Y-117384675D01*
X105021079Y-117163154D01*
X105123034Y-116917013D01*
X105175010Y-116655711D01*
X105175010Y-116389289D01*
X105123034Y-116127987D01*
X105021079Y-115881846D01*
X104873063Y-115660325D01*
X104684675Y-115471937D01*
X104463154Y-115323921D01*
X104217013Y-115221966D01*
X103955711Y-115169990D01*
X103689289Y-115169990D01*
X103427987Y-115221966D01*
X103368443Y-115246630D01*
X103133610Y-115011798D01*
X103133610Y-112911715D01*
X104302500Y-112911715D01*
X104371604Y-112904909D01*
X104438052Y-112884752D01*
X104499291Y-112852019D01*
X104552968Y-112807968D01*
X104597019Y-112754291D01*
X104629752Y-112693052D01*
X104649909Y-112626604D01*
X104656715Y-112557500D01*
X104656715Y-109057500D01*
X104649909Y-108988396D01*
X104629752Y-108921948D01*
X104597019Y-108860709D01*
X104552968Y-108807032D01*
X104499291Y-108762981D01*
X104438052Y-108730248D01*
X104371604Y-108710091D01*
X104302500Y-108703285D01*
X100802500Y-108703285D01*
X100733396Y-108710091D01*
X100666948Y-108730248D01*
X100605709Y-108762981D01*
X100552032Y-108807032D01*
X100507981Y-108860709D01*
X100475248Y-108921948D01*
X100455091Y-108988396D01*
X100448285Y-109057500D01*
X98409821Y-109057500D01*
X98402955Y-108987790D01*
X98382622Y-108920759D01*
X98349602Y-108858983D01*
X98305164Y-108804836D01*
X98251017Y-108760398D01*
X98189241Y-108727378D01*
X98122210Y-108707045D01*
X98052500Y-108700179D01*
X96793800Y-108701900D01*
X96704900Y-108790800D01*
X96400100Y-108790800D01*
X96311200Y-108701900D01*
X95052500Y-108700179D01*
X94982790Y-108707045D01*
X94915759Y-108727378D01*
X94853983Y-108760398D01*
X94799836Y-108804836D01*
X94755398Y-108858983D01*
X94722378Y-108920759D01*
X94702045Y-108987790D01*
X94695179Y-109057500D01*
X91842510Y-109057500D01*
X91842510Y-102130000D01*
X103707679Y-102130000D01*
X103714545Y-102199710D01*
X103734878Y-102266741D01*
X103767898Y-102328517D01*
X103812336Y-102382664D01*
X103866483Y-102427102D01*
X103928259Y-102460122D01*
X103995290Y-102480455D01*
X104065000Y-102487321D01*
X105123700Y-102485600D01*
X105212600Y-102396700D01*
X105212600Y-100482400D01*
X105517400Y-100482400D01*
X105517400Y-102396700D01*
X105606300Y-102485600D01*
X106665000Y-102487321D01*
X106734710Y-102480455D01*
X106801741Y-102460122D01*
X106863517Y-102427102D01*
X106917664Y-102382664D01*
X106962102Y-102328517D01*
X106995122Y-102266741D01*
X107015455Y-102199710D01*
X107022321Y-102130000D01*
X107020600Y-100571300D01*
X106931700Y-100482400D01*
X105517400Y-100482400D01*
X105212600Y-100482400D01*
X103798300Y-100482400D01*
X103709400Y-100571300D01*
X103707679Y-102130000D01*
X91842510Y-102130000D01*
X91842510Y-98530000D01*
X103707679Y-98530000D01*
X103709400Y-100088700D01*
X103798300Y-100177600D01*
X105212600Y-100177600D01*
X105212600Y-98263300D01*
X105517400Y-98263300D01*
X105517400Y-100177600D01*
X106931700Y-100177600D01*
X107020600Y-100088700D01*
X107022321Y-98530000D01*
X107015455Y-98460290D01*
X106995122Y-98393259D01*
X106962102Y-98331483D01*
X106917664Y-98277336D01*
X106863517Y-98232898D01*
X106801741Y-98199878D01*
X106734710Y-98179545D01*
X106665000Y-98172679D01*
X105606300Y-98174400D01*
X105517400Y-98263300D01*
X105212600Y-98263300D01*
X105123700Y-98174400D01*
X104065000Y-98172679D01*
X103995290Y-98179545D01*
X103928259Y-98199878D01*
X103866483Y-98232898D01*
X103812336Y-98277336D01*
X103767898Y-98331483D01*
X103734878Y-98393259D01*
X103714545Y-98460290D01*
X103707679Y-98530000D01*
X91842510Y-98530000D01*
X91842510Y-94799289D01*
X93897490Y-94799289D01*
X93897490Y-95065711D01*
X93949466Y-95327013D01*
X94051421Y-95573154D01*
X94199437Y-95794675D01*
X94387825Y-95983063D01*
X94609346Y-96131079D01*
X94855487Y-96233034D01*
X95116789Y-96285010D01*
X95383211Y-96285010D01*
X95644513Y-96233034D01*
X95890654Y-96131079D01*
X96112175Y-95983063D01*
X96300563Y-95794675D01*
X96448579Y-95573154D01*
X96550534Y-95327013D01*
X96602510Y-95065711D01*
X96602510Y-94799289D01*
X96550534Y-94537987D01*
X96494307Y-94402243D01*
X99586641Y-91309910D01*
X115708257Y-91309910D01*
X115660325Y-91341937D01*
X115471937Y-91530325D01*
X115323921Y-91751846D01*
X115221966Y-91997987D01*
X115169990Y-92259289D01*
X115169990Y-92525711D01*
X115221966Y-92787013D01*
X115278193Y-92922757D01*
X114595520Y-93605431D01*
X114576248Y-93621247D01*
X114513152Y-93698130D01*
X114494021Y-93733921D01*
X114466267Y-93785845D01*
X114437396Y-93881020D01*
X114427647Y-93980000D01*
X114430091Y-94004813D01*
X114430090Y-98717697D01*
X114427647Y-98742500D01*
X114435774Y-98825010D01*
X114437396Y-98841479D01*
X114466267Y-98936655D01*
X114513151Y-99024370D01*
X114576247Y-99101253D01*
X114595525Y-99117074D01*
X117735431Y-102256981D01*
X117751247Y-102276253D01*
X117828130Y-102339349D01*
X117909167Y-102382664D01*
X117915844Y-102386233D01*
X118011019Y-102415104D01*
X118109999Y-102424853D01*
X118134803Y-102422410D01*
X120982694Y-102422410D01*
X121038921Y-102558154D01*
X121186937Y-102779675D01*
X121375325Y-102968063D01*
X121596846Y-103116079D01*
X121842987Y-103218034D01*
X122104289Y-103270010D01*
X122370711Y-103270010D01*
X122632013Y-103218034D01*
X122878154Y-103116079D01*
X123099675Y-102968063D01*
X123288063Y-102779675D01*
X123436079Y-102558154D01*
X123538034Y-102312013D01*
X123590010Y-102050711D01*
X123590010Y-101784289D01*
X123538034Y-101522987D01*
X123436079Y-101276846D01*
X123288063Y-101055325D01*
X123099675Y-100866937D01*
X123051743Y-100834910D01*
X123165197Y-100834910D01*
X123190000Y-100837353D01*
X123214803Y-100834910D01*
X123288980Y-100827604D01*
X123384156Y-100798733D01*
X123471870Y-100751849D01*
X123548753Y-100688753D01*
X123564574Y-100669475D01*
X124164480Y-100069570D01*
X124183753Y-100053753D01*
X124246849Y-99976870D01*
X124293733Y-99889156D01*
X124322604Y-99793980D01*
X124329910Y-99719803D01*
X124329910Y-99719802D01*
X124332353Y-99695000D01*
X124329910Y-99670197D01*
X124329910Y-98530000D01*
X133010785Y-98530000D01*
X133010785Y-102130000D01*
X133017591Y-102199104D01*
X133037748Y-102265552D01*
X133070481Y-102326791D01*
X133114532Y-102380468D01*
X133168209Y-102424519D01*
X133229448Y-102457252D01*
X133295896Y-102477409D01*
X133365000Y-102484215D01*
X134083890Y-102484215D01*
X134083891Y-105108957D01*
X134081080Y-105137500D01*
X134092299Y-105251417D01*
X134099068Y-105273730D01*
X134125528Y-105360957D01*
X134179488Y-105461909D01*
X134252107Y-105550394D01*
X134274275Y-105568587D01*
X135249130Y-106543443D01*
X135224466Y-106602987D01*
X135172490Y-106864289D01*
X135172490Y-107130711D01*
X135224466Y-107392013D01*
X135326421Y-107638154D01*
X135474437Y-107859675D01*
X135662825Y-108048063D01*
X135884346Y-108196079D01*
X136130487Y-108298034D01*
X136391789Y-108350010D01*
X136658211Y-108350010D01*
X136919513Y-108298034D01*
X137165654Y-108196079D01*
X137387175Y-108048063D01*
X137575563Y-107859675D01*
X137723579Y-107638154D01*
X137825534Y-107392013D01*
X137877510Y-107130711D01*
X137877510Y-106864289D01*
X137825534Y-106602987D01*
X137723579Y-106356846D01*
X137575563Y-106135325D01*
X137387175Y-105946937D01*
X137165654Y-105798921D01*
X136919513Y-105696966D01*
X136658211Y-105644990D01*
X136391789Y-105644990D01*
X136130487Y-105696966D01*
X136070943Y-105721630D01*
X135246110Y-104896798D01*
X135246110Y-102484215D01*
X135965000Y-102484215D01*
X136034104Y-102477409D01*
X136100552Y-102457252D01*
X136161791Y-102424519D01*
X136215468Y-102380468D01*
X136259519Y-102326791D01*
X136292252Y-102265552D01*
X136312409Y-102199104D01*
X136319215Y-102130000D01*
X136319215Y-98530000D01*
X136312409Y-98460896D01*
X136292252Y-98394448D01*
X136259519Y-98333209D01*
X136215468Y-98279532D01*
X136161791Y-98235481D01*
X136100552Y-98202748D01*
X136034104Y-98182591D01*
X135965000Y-98175785D01*
X133365000Y-98175785D01*
X133295896Y-98182591D01*
X133229448Y-98202748D01*
X133168209Y-98235481D01*
X133114532Y-98279532D01*
X133070481Y-98333209D01*
X133037748Y-98394448D01*
X133017591Y-98460896D01*
X133010785Y-98530000D01*
X124329910Y-98530000D01*
X124329910Y-97814803D01*
X124332353Y-97789999D01*
X124322604Y-97691019D01*
X124293733Y-97595844D01*
X124280710Y-97571480D01*
X124246849Y-97508130D01*
X124183753Y-97431247D01*
X124164481Y-97415431D01*
X123481807Y-96732757D01*
X123538034Y-96597013D01*
X123590010Y-96335711D01*
X123590010Y-96069289D01*
X123538034Y-95807987D01*
X123436079Y-95561846D01*
X123288063Y-95340325D01*
X123099675Y-95151937D01*
X122878154Y-95003921D01*
X122705729Y-94932500D01*
X122878154Y-94861079D01*
X123099675Y-94713063D01*
X123288063Y-94524675D01*
X123436079Y-94303154D01*
X123538034Y-94057013D01*
X123590010Y-93795711D01*
X123590010Y-93529289D01*
X123538034Y-93267987D01*
X123436079Y-93021846D01*
X123288063Y-92800325D01*
X123099675Y-92611937D01*
X122878154Y-92463921D01*
X122632013Y-92361966D01*
X122370711Y-92309990D01*
X122104289Y-92309990D01*
X121842987Y-92361966D01*
X121707243Y-92418193D01*
X119754574Y-90465525D01*
X119738753Y-90446247D01*
X119661870Y-90383151D01*
X119574156Y-90336267D01*
X119478980Y-90307396D01*
X119404803Y-90300090D01*
X119380000Y-90297647D01*
X119355197Y-90300090D01*
X99402302Y-90300090D01*
X99377499Y-90297647D01*
X99278519Y-90307396D01*
X99256368Y-90314116D01*
X99183344Y-90336267D01*
X99095630Y-90383151D01*
X99018747Y-90446247D01*
X99002936Y-90465513D01*
X95780257Y-93688193D01*
X95644513Y-93631966D01*
X95383211Y-93579990D01*
X95116789Y-93579990D01*
X94855487Y-93631966D01*
X94609346Y-93733921D01*
X94387825Y-93881937D01*
X94199437Y-94070325D01*
X94051421Y-94291846D01*
X93949466Y-94537987D01*
X93897490Y-94799289D01*
X91842510Y-94799289D01*
X91842510Y-80412510D01*
X149457490Y-80412510D01*
X149457491Y-106928987D01*
G37*
X149457491Y-106928987D02*
X149351476Y-106770325D01*
X149163088Y-106581937D01*
X148941567Y-106433921D01*
X148695426Y-106331966D01*
X148434124Y-106279990D01*
X148167702Y-106279990D01*
X147906400Y-106331966D01*
X147660259Y-106433921D01*
X147438738Y-106581937D01*
X147250350Y-106770325D01*
X147102334Y-106991846D01*
X147000379Y-107237987D01*
X146948403Y-107499289D01*
X146948403Y-107765711D01*
X147000379Y-108027013D01*
X147102334Y-108273154D01*
X147250350Y-108494675D01*
X147438738Y-108683063D01*
X147660259Y-108831079D01*
X147719804Y-108855743D01*
X147719804Y-109268383D01*
X147657185Y-109331002D01*
X147438437Y-109287490D01*
X147201563Y-109287490D01*
X146969241Y-109333702D01*
X146750398Y-109424350D01*
X146554910Y-109554971D01*
X146554910Y-107299806D01*
X146690654Y-107243579D01*
X146912175Y-107095563D01*
X147100563Y-106907175D01*
X147248579Y-106685654D01*
X147350534Y-106439513D01*
X147402510Y-106178211D01*
X147402510Y-105911789D01*
X147350534Y-105650487D01*
X147248579Y-105404346D01*
X147100563Y-105182825D01*
X146912175Y-104994437D01*
X146690654Y-104846421D01*
X146444513Y-104744466D01*
X146183211Y-104692490D01*
X146039659Y-104692490D01*
X147024481Y-103707668D01*
X147043753Y-103691852D01*
X147106849Y-103614969D01*
X147153733Y-103527255D01*
X147182604Y-103432079D01*
X147189910Y-103357902D01*
X147189910Y-103357901D01*
X147192353Y-103333099D01*
X147189910Y-103308296D01*
X147189910Y-89559803D01*
X147192353Y-89535000D01*
X147182604Y-89436020D01*
X147153733Y-89340844D01*
X147143580Y-89321849D01*
X147106849Y-89253130D01*
X147043753Y-89176247D01*
X147024481Y-89160431D01*
X144837074Y-86973025D01*
X144821253Y-86953747D01*
X144744370Y-86890651D01*
X144656656Y-86843767D01*
X144561480Y-86814896D01*
X144487303Y-86807590D01*
X144462500Y-86805147D01*
X144446929Y-86806681D01*
X144391079Y-86671846D01*
X144243063Y-86450325D01*
X144054675Y-86261937D01*
X143833154Y-86113921D01*
X143587013Y-86011966D01*
X143325711Y-85959990D01*
X143059289Y-85959990D01*
X142797987Y-86011966D01*
X142551846Y-86113921D01*
X142330325Y-86261937D01*
X142141937Y-86450325D01*
X141993921Y-86671846D01*
X141891966Y-86917987D01*
X141839990Y-87179289D01*
X141839990Y-87445711D01*
X141891966Y-87707013D01*
X141993921Y-87953154D01*
X142141937Y-88174675D01*
X142330325Y-88363063D01*
X142378257Y-88395090D01*
X123492306Y-88395090D01*
X123436079Y-88259346D01*
X123288063Y-88037825D01*
X123099675Y-87849437D01*
X122878154Y-87701421D01*
X122632013Y-87599466D01*
X122370711Y-87547490D01*
X122104289Y-87547490D01*
X121842987Y-87599466D01*
X121596846Y-87701421D01*
X121375325Y-87849437D01*
X121186937Y-88037825D01*
X121038921Y-88259346D01*
X120936966Y-88505487D01*
X120884990Y-88766789D01*
X120884990Y-89033211D01*
X120936966Y-89294513D01*
X121038921Y-89540654D01*
X121186937Y-89762175D01*
X121375325Y-89950563D01*
X121596846Y-90098579D01*
X121842987Y-90200534D01*
X122104289Y-90252510D01*
X122370711Y-90252510D01*
X122632013Y-90200534D01*
X122878154Y-90098579D01*
X123099675Y-89950563D01*
X123288063Y-89762175D01*
X123436079Y-89540654D01*
X123492306Y-89404910D01*
X142378257Y-89404910D01*
X142330325Y-89436937D01*
X142141937Y-89625325D01*
X141993921Y-89846846D01*
X141891966Y-90092987D01*
X141839990Y-90354289D01*
X141839990Y-90620711D01*
X141891966Y-90882013D01*
X141993921Y-91128154D01*
X142141937Y-91349675D01*
X142330325Y-91538063D01*
X142551846Y-91686079D01*
X142797987Y-91788034D01*
X143059289Y-91840010D01*
X143325711Y-91840010D01*
X143587013Y-91788034D01*
X143722757Y-91731807D01*
X144157813Y-92166864D01*
X144157824Y-92166873D01*
X144275091Y-92284140D01*
X144275090Y-101103257D01*
X144243063Y-101055325D01*
X144054675Y-100866937D01*
X143833154Y-100718921D01*
X143587013Y-100616966D01*
X143325711Y-100564990D01*
X143059289Y-100564990D01*
X142797987Y-100616966D01*
X142662243Y-100673193D01*
X133407074Y-91418025D01*
X133391253Y-91398747D01*
X133314370Y-91335651D01*
X133226656Y-91288767D01*
X133131480Y-91259896D01*
X133057303Y-91252590D01*
X133032500Y-91250147D01*
X133007697Y-91252590D01*
X122446641Y-91252590D01*
X119754574Y-88560525D01*
X119738753Y-88541247D01*
X119661870Y-88478151D01*
X119574156Y-88431267D01*
X119478980Y-88402396D01*
X119404803Y-88395090D01*
X119380000Y-88392647D01*
X119355197Y-88395090D01*
X117777306Y-88395090D01*
X117721079Y-88259346D01*
X117573063Y-88037825D01*
X117384675Y-87849437D01*
X117163154Y-87701421D01*
X116917013Y-87599466D01*
X116655711Y-87547490D01*
X116389289Y-87547490D01*
X116127987Y-87599466D01*
X115881846Y-87701421D01*
X115660325Y-87849437D01*
X115471937Y-88037825D01*
X115323921Y-88259346D01*
X115221966Y-88505487D01*
X115169990Y-88766789D01*
X115169990Y-89033211D01*
X115221966Y-89294513D01*
X115323921Y-89540654D01*
X115471937Y-89762175D01*
X115660325Y-89950563D01*
X115881846Y-90098579D01*
X116127987Y-90200534D01*
X116389289Y-90252510D01*
X116655711Y-90252510D01*
X116917013Y-90200534D01*
X117163154Y-90098579D01*
X117384675Y-89950563D01*
X117573063Y-89762175D01*
X117721079Y-89540654D01*
X117777306Y-89404910D01*
X119170861Y-89404910D01*
X121862935Y-92096986D01*
X121878747Y-92116253D01*
X121955630Y-92179349D01*
X122043344Y-92226233D01*
X122138519Y-92255104D01*
X122237499Y-92264853D01*
X122262302Y-92262410D01*
X132823361Y-92262410D01*
X141948193Y-101387243D01*
X141891966Y-101522987D01*
X141839990Y-101784289D01*
X141839990Y-102050711D01*
X141891966Y-102312013D01*
X141993921Y-102558154D01*
X142141937Y-102779675D01*
X142330325Y-102968063D01*
X142551846Y-103116079D01*
X142797987Y-103218034D01*
X143059289Y-103270010D01*
X143325711Y-103270010D01*
X143587013Y-103218034D01*
X143810478Y-103125472D01*
X141900520Y-105035431D01*
X141881248Y-105051247D01*
X141818152Y-105128130D01*
X141813144Y-105137500D01*
X141771267Y-105215845D01*
X141742396Y-105311020D01*
X141732647Y-105410000D01*
X141735091Y-105434813D01*
X141735090Y-113005197D01*
X141732647Y-113030000D01*
X141735090Y-113054802D01*
X141742396Y-113128979D01*
X141771267Y-113224155D01*
X141818151Y-113311870D01*
X141881247Y-113388753D01*
X141900525Y-113404574D01*
X143561040Y-115065090D01*
X141589806Y-115065090D01*
X141533579Y-114929346D01*
X141385563Y-114707825D01*
X141197175Y-114519437D01*
X140975654Y-114371421D01*
X140729513Y-114269466D01*
X140468211Y-114217490D01*
X140201789Y-114217490D01*
X139940487Y-114269466D01*
X139694346Y-114371421D01*
X139472825Y-114519437D01*
X139284437Y-114707825D01*
X139136421Y-114929346D01*
X139034466Y-115175487D01*
X138982490Y-115436789D01*
X138982490Y-115703211D01*
X139034466Y-115964513D01*
X139136421Y-116210654D01*
X139284437Y-116432175D01*
X139472825Y-116620563D01*
X139694346Y-116768579D01*
X139940487Y-116870534D01*
X140201789Y-116922510D01*
X140468211Y-116922510D01*
X140729513Y-116870534D01*
X140975654Y-116768579D01*
X141197175Y-116620563D01*
X141385563Y-116432175D01*
X141533579Y-116210654D01*
X141589806Y-116074910D01*
X143687554Y-116074910D01*
X143714350Y-116139602D01*
X143845950Y-116336555D01*
X144013445Y-116504050D01*
X144210398Y-116635650D01*
X144429241Y-116726298D01*
X144661563Y-116772510D01*
X144898437Y-116772510D01*
X145130759Y-116726298D01*
X145349602Y-116635650D01*
X145546555Y-116504050D01*
X145714050Y-116336555D01*
X145845650Y-116139602D01*
X145936298Y-115920759D01*
X145938913Y-115907608D01*
X146162635Y-115907608D01*
X146170115Y-115932289D01*
X146262889Y-116149659D01*
X146396287Y-116344753D01*
X146565183Y-116510074D01*
X146763086Y-116639268D01*
X146982391Y-116727371D01*
X147167600Y-116677036D01*
X147167600Y-115722400D01*
X147472400Y-115722400D01*
X147472400Y-116677036D01*
X147657609Y-116727371D01*
X147876914Y-116639268D01*
X148074817Y-116510074D01*
X148243713Y-116344753D01*
X148377111Y-116149659D01*
X148469885Y-115932289D01*
X148477365Y-115907608D01*
X148426252Y-115722400D01*
X147472400Y-115722400D01*
X147167600Y-115722400D01*
X146213748Y-115722400D01*
X146162635Y-115907608D01*
X145938913Y-115907608D01*
X145982510Y-115688437D01*
X145982510Y-115451563D01*
X145938914Y-115232392D01*
X146162635Y-115232392D01*
X146213748Y-115417600D01*
X147167600Y-115417600D01*
X147167600Y-114462964D01*
X147472400Y-114462964D01*
X147472400Y-115417600D01*
X148426252Y-115417600D01*
X148477365Y-115232392D01*
X148469885Y-115207711D01*
X148377111Y-114990341D01*
X148243713Y-114795247D01*
X148074817Y-114629926D01*
X147876914Y-114500732D01*
X147657609Y-114412629D01*
X147472400Y-114462964D01*
X147167600Y-114462964D01*
X146982391Y-114412629D01*
X146763086Y-114500732D01*
X146565183Y-114629926D01*
X146396287Y-114795247D01*
X146262889Y-114990341D01*
X146170115Y-115207711D01*
X146162635Y-115232392D01*
X145938914Y-115232392D01*
X145936298Y-115219241D01*
X145845650Y-115000398D01*
X145714050Y-114803445D01*
X145546555Y-114635950D01*
X145349602Y-114504350D01*
X145130759Y-114413702D01*
X144898437Y-114367490D01*
X144661563Y-114367490D01*
X144429241Y-114413702D01*
X144364549Y-114440498D01*
X142744910Y-112820861D01*
X142744910Y-111676211D01*
X142770651Y-111724370D01*
X142833747Y-111801253D01*
X142853025Y-111817074D01*
X143650499Y-112614548D01*
X143623702Y-112679241D01*
X143577490Y-112911563D01*
X143577490Y-113148437D01*
X143623702Y-113380759D01*
X143714350Y-113599602D01*
X143845950Y-113796555D01*
X144013445Y-113964050D01*
X144210398Y-114095650D01*
X144429241Y-114186298D01*
X144661563Y-114232510D01*
X144898437Y-114232510D01*
X145130759Y-114186298D01*
X145349602Y-114095650D01*
X145546555Y-113964050D01*
X145714050Y-113796555D01*
X145845650Y-113599602D01*
X145936298Y-113380759D01*
X145982510Y-113148437D01*
X145982510Y-112911563D01*
X145936298Y-112679241D01*
X145845650Y-112460398D01*
X145714050Y-112263445D01*
X145546555Y-112095950D01*
X145349602Y-111964350D01*
X145130759Y-111873702D01*
X144898437Y-111827490D01*
X144661563Y-111827490D01*
X144429241Y-111873702D01*
X144364548Y-111900499D01*
X144158264Y-111694215D01*
X145561780Y-111694215D01*
X145561780Y-111751876D01*
X145559336Y-111776689D01*
X145569085Y-111875669D01*
X145597956Y-111970844D01*
X145597957Y-111970845D01*
X145644841Y-112058559D01*
X145707937Y-112135442D01*
X145727209Y-112151258D01*
X146190499Y-112614548D01*
X146163702Y-112679241D01*
X146117490Y-112911563D01*
X146117490Y-113148437D01*
X146163702Y-113380759D01*
X146254350Y-113599602D01*
X146385950Y-113796555D01*
X146553445Y-113964050D01*
X146750398Y-114095650D01*
X146969241Y-114186298D01*
X147201563Y-114232510D01*
X147438437Y-114232510D01*
X147670759Y-114186298D01*
X147889602Y-114095650D01*
X148086555Y-113964050D01*
X148254050Y-113796555D01*
X148385650Y-113599602D01*
X148476298Y-113380759D01*
X148522510Y-113148437D01*
X148522510Y-112911563D01*
X148476298Y-112679241D01*
X148385650Y-112460398D01*
X148254050Y-112263445D01*
X148086555Y-112095950D01*
X147889602Y-111964350D01*
X147670759Y-111873702D01*
X147438437Y-111827490D01*
X147201563Y-111827490D01*
X146969241Y-111873702D01*
X146904548Y-111900499D01*
X146571599Y-111567550D01*
X146571599Y-111436180D01*
X146750398Y-111555650D01*
X146969241Y-111646298D01*
X147201563Y-111692510D01*
X147438437Y-111692510D01*
X147670759Y-111646298D01*
X147889602Y-111555650D01*
X148086555Y-111424050D01*
X148254050Y-111256555D01*
X148385650Y-111059602D01*
X148476298Y-110840759D01*
X148522510Y-110608437D01*
X148522510Y-110371563D01*
X148478998Y-110152815D01*
X148691643Y-109940170D01*
X148713807Y-109921981D01*
X148731996Y-109899818D01*
X148732000Y-109899814D01*
X148752332Y-109875039D01*
X148786426Y-109833496D01*
X148840386Y-109732544D01*
X148858146Y-109673994D01*
X148873614Y-109623006D01*
X148874678Y-109612199D01*
X148882023Y-109537627D01*
X148882023Y-109537613D01*
X148884832Y-109509088D01*
X148882023Y-109480563D01*
X148882023Y-108855743D01*
X148941567Y-108831079D01*
X149163088Y-108683063D01*
X149351476Y-108494675D01*
X149457491Y-108336013D01*
X149457491Y-118342490D01*
X91842510Y-118342490D01*
X91842510Y-117257500D01*
X97445179Y-117257500D01*
X97452045Y-117327210D01*
X97472378Y-117394241D01*
X97505398Y-117456017D01*
X97549836Y-117510164D01*
X97603983Y-117554602D01*
X97665759Y-117587622D01*
X97732790Y-117607955D01*
X97802500Y-117614821D01*
X99311200Y-117613100D01*
X99400100Y-117524200D01*
X99400100Y-115659900D01*
X99704900Y-115659900D01*
X99704900Y-117524200D01*
X99793800Y-117613100D01*
X101302500Y-117614821D01*
X101372210Y-117607955D01*
X101439241Y-117587622D01*
X101501017Y-117554602D01*
X101555164Y-117510164D01*
X101599602Y-117456017D01*
X101632622Y-117394241D01*
X101652955Y-117327210D01*
X101659821Y-117257500D01*
X101658100Y-115748800D01*
X101569200Y-115659900D01*
X99704900Y-115659900D01*
X99400100Y-115659900D01*
X97535800Y-115659900D01*
X97446900Y-115748800D01*
X97445179Y-117257500D01*
X91842510Y-117257500D01*
X91842510Y-113757500D01*
X97445179Y-113757500D01*
X97446900Y-115266200D01*
X97535800Y-115355100D01*
X99400100Y-115355100D01*
X99400100Y-113490800D01*
X99704900Y-113490800D01*
X99704900Y-115355100D01*
X101569200Y-115355100D01*
X101658100Y-115266200D01*
X101659821Y-113757500D01*
X101652955Y-113687790D01*
X101632622Y-113620759D01*
X101599602Y-113558983D01*
X101555164Y-113504836D01*
X101501017Y-113460398D01*
X101439241Y-113427378D01*
X101372210Y-113407045D01*
X101302500Y-113400179D01*
X99793800Y-113401900D01*
X99704900Y-113490800D01*
X99400100Y-113490800D01*
X99311200Y-113401900D01*
X97802500Y-113400179D01*
X97732790Y-113407045D01*
X97665759Y-113427378D01*
X97603983Y-113460398D01*
X97549836Y-113504836D01*
X97505398Y-113558983D01*
X97472378Y-113620759D01*
X97452045Y-113687790D01*
X97445179Y-113757500D01*
X91842510Y-113757500D01*
X91842510Y-112557500D01*
X94695179Y-112557500D01*
X94702045Y-112627210D01*
X94722378Y-112694241D01*
X94755398Y-112756017D01*
X94799836Y-112810164D01*
X94853983Y-112854602D01*
X94915759Y-112887622D01*
X94982790Y-112907955D01*
X95052500Y-112914821D01*
X96311200Y-112913100D01*
X96400100Y-112824200D01*
X96400100Y-110959900D01*
X96704900Y-110959900D01*
X96704900Y-112824200D01*
X96793800Y-112913100D01*
X98052500Y-112914821D01*
X98122210Y-112907955D01*
X98189241Y-112887622D01*
X98251017Y-112854602D01*
X98305164Y-112810164D01*
X98349602Y-112756017D01*
X98382622Y-112694241D01*
X98402955Y-112627210D01*
X98409821Y-112557500D01*
X98408100Y-111048800D01*
X98319200Y-110959900D01*
X96704900Y-110959900D01*
X96400100Y-110959900D01*
X94785800Y-110959900D01*
X94696900Y-111048800D01*
X94695179Y-112557500D01*
X91842510Y-112557500D01*
X91842510Y-109057500D01*
X94695179Y-109057500D01*
X94696900Y-110566200D01*
X94785800Y-110655100D01*
X96400100Y-110655100D01*
X96400100Y-108790800D01*
X96704900Y-108790800D01*
X96704900Y-110655100D01*
X98319200Y-110655100D01*
X98408100Y-110566200D01*
X98409821Y-109057500D01*
X100448285Y-109057500D01*
X100448285Y-112557500D01*
X100455091Y-112626604D01*
X100475248Y-112693052D01*
X100507981Y-112754291D01*
X100552032Y-112807968D01*
X100605709Y-112852019D01*
X100666948Y-112884752D01*
X100733396Y-112904909D01*
X100802500Y-112911715D01*
X101971390Y-112911715D01*
X101971391Y-115223957D01*
X101968580Y-115252500D01*
X101979799Y-115366417D01*
X102005628Y-115451563D01*
X102013028Y-115475957D01*
X102066988Y-115576909D01*
X102139607Y-115665394D01*
X102161775Y-115683587D01*
X102546630Y-116068443D01*
X102521966Y-116127987D01*
X102469990Y-116389289D01*
X102469990Y-116655711D01*
X102521966Y-116917013D01*
X102623921Y-117163154D01*
X102771937Y-117384675D01*
X102960325Y-117573063D01*
X103181846Y-117721079D01*
X103427987Y-117823034D01*
X103689289Y-117875010D01*
X103955711Y-117875010D01*
X104217013Y-117823034D01*
X104463154Y-117721079D01*
X104684675Y-117573063D01*
X104873063Y-117384675D01*
X105021079Y-117163154D01*
X105123034Y-116917013D01*
X105175010Y-116655711D01*
X105175010Y-116389289D01*
X105123034Y-116127987D01*
X105021079Y-115881846D01*
X104873063Y-115660325D01*
X104684675Y-115471937D01*
X104463154Y-115323921D01*
X104217013Y-115221966D01*
X103955711Y-115169990D01*
X103689289Y-115169990D01*
X103427987Y-115221966D01*
X103368443Y-115246630D01*
X103133610Y-115011798D01*
X103133610Y-112911715D01*
X104302500Y-112911715D01*
X104371604Y-112904909D01*
X104438052Y-112884752D01*
X104499291Y-112852019D01*
X104552968Y-112807968D01*
X104597019Y-112754291D01*
X104629752Y-112693052D01*
X104649909Y-112626604D01*
X104656715Y-112557500D01*
X104656715Y-109057500D01*
X104649909Y-108988396D01*
X104629752Y-108921948D01*
X104597019Y-108860709D01*
X104552968Y-108807032D01*
X104499291Y-108762981D01*
X104438052Y-108730248D01*
X104371604Y-108710091D01*
X104302500Y-108703285D01*
X100802500Y-108703285D01*
X100733396Y-108710091D01*
X100666948Y-108730248D01*
X100605709Y-108762981D01*
X100552032Y-108807032D01*
X100507981Y-108860709D01*
X100475248Y-108921948D01*
X100455091Y-108988396D01*
X100448285Y-109057500D01*
X98409821Y-109057500D01*
X98402955Y-108987790D01*
X98382622Y-108920759D01*
X98349602Y-108858983D01*
X98305164Y-108804836D01*
X98251017Y-108760398D01*
X98189241Y-108727378D01*
X98122210Y-108707045D01*
X98052500Y-108700179D01*
X96793800Y-108701900D01*
X96704900Y-108790800D01*
X96400100Y-108790800D01*
X96311200Y-108701900D01*
X95052500Y-108700179D01*
X94982790Y-108707045D01*
X94915759Y-108727378D01*
X94853983Y-108760398D01*
X94799836Y-108804836D01*
X94755398Y-108858983D01*
X94722378Y-108920759D01*
X94702045Y-108987790D01*
X94695179Y-109057500D01*
X91842510Y-109057500D01*
X91842510Y-102130000D01*
X103707679Y-102130000D01*
X103714545Y-102199710D01*
X103734878Y-102266741D01*
X103767898Y-102328517D01*
X103812336Y-102382664D01*
X103866483Y-102427102D01*
X103928259Y-102460122D01*
X103995290Y-102480455D01*
X104065000Y-102487321D01*
X105123700Y-102485600D01*
X105212600Y-102396700D01*
X105212600Y-100482400D01*
X105517400Y-100482400D01*
X105517400Y-102396700D01*
X105606300Y-102485600D01*
X106665000Y-102487321D01*
X106734710Y-102480455D01*
X106801741Y-102460122D01*
X106863517Y-102427102D01*
X106917664Y-102382664D01*
X106962102Y-102328517D01*
X106995122Y-102266741D01*
X107015455Y-102199710D01*
X107022321Y-102130000D01*
X107020600Y-100571300D01*
X106931700Y-100482400D01*
X105517400Y-100482400D01*
X105212600Y-100482400D01*
X103798300Y-100482400D01*
X103709400Y-100571300D01*
X103707679Y-102130000D01*
X91842510Y-102130000D01*
X91842510Y-98530000D01*
X103707679Y-98530000D01*
X103709400Y-100088700D01*
X103798300Y-100177600D01*
X105212600Y-100177600D01*
X105212600Y-98263300D01*
X105517400Y-98263300D01*
X105517400Y-100177600D01*
X106931700Y-100177600D01*
X107020600Y-100088700D01*
X107022321Y-98530000D01*
X107015455Y-98460290D01*
X106995122Y-98393259D01*
X106962102Y-98331483D01*
X106917664Y-98277336D01*
X106863517Y-98232898D01*
X106801741Y-98199878D01*
X106734710Y-98179545D01*
X106665000Y-98172679D01*
X105606300Y-98174400D01*
X105517400Y-98263300D01*
X105212600Y-98263300D01*
X105123700Y-98174400D01*
X104065000Y-98172679D01*
X103995290Y-98179545D01*
X103928259Y-98199878D01*
X103866483Y-98232898D01*
X103812336Y-98277336D01*
X103767898Y-98331483D01*
X103734878Y-98393259D01*
X103714545Y-98460290D01*
X103707679Y-98530000D01*
X91842510Y-98530000D01*
X91842510Y-94799289D01*
X93897490Y-94799289D01*
X93897490Y-95065711D01*
X93949466Y-95327013D01*
X94051421Y-95573154D01*
X94199437Y-95794675D01*
X94387825Y-95983063D01*
X94609346Y-96131079D01*
X94855487Y-96233034D01*
X95116789Y-96285010D01*
X95383211Y-96285010D01*
X95644513Y-96233034D01*
X95890654Y-96131079D01*
X96112175Y-95983063D01*
X96300563Y-95794675D01*
X96448579Y-95573154D01*
X96550534Y-95327013D01*
X96602510Y-95065711D01*
X96602510Y-94799289D01*
X96550534Y-94537987D01*
X96494307Y-94402243D01*
X99586641Y-91309910D01*
X115708257Y-91309910D01*
X115660325Y-91341937D01*
X115471937Y-91530325D01*
X115323921Y-91751846D01*
X115221966Y-91997987D01*
X115169990Y-92259289D01*
X115169990Y-92525711D01*
X115221966Y-92787013D01*
X115278193Y-92922757D01*
X114595520Y-93605431D01*
X114576248Y-93621247D01*
X114513152Y-93698130D01*
X114494021Y-93733921D01*
X114466267Y-93785845D01*
X114437396Y-93881020D01*
X114427647Y-93980000D01*
X114430091Y-94004813D01*
X114430090Y-98717697D01*
X114427647Y-98742500D01*
X114435774Y-98825010D01*
X114437396Y-98841479D01*
X114466267Y-98936655D01*
X114513151Y-99024370D01*
X114576247Y-99101253D01*
X114595525Y-99117074D01*
X117735431Y-102256981D01*
X117751247Y-102276253D01*
X117828130Y-102339349D01*
X117909167Y-102382664D01*
X117915844Y-102386233D01*
X118011019Y-102415104D01*
X118109999Y-102424853D01*
X118134803Y-102422410D01*
X120982694Y-102422410D01*
X121038921Y-102558154D01*
X121186937Y-102779675D01*
X121375325Y-102968063D01*
X121596846Y-103116079D01*
X121842987Y-103218034D01*
X122104289Y-103270010D01*
X122370711Y-103270010D01*
X122632013Y-103218034D01*
X122878154Y-103116079D01*
X123099675Y-102968063D01*
X123288063Y-102779675D01*
X123436079Y-102558154D01*
X123538034Y-102312013D01*
X123590010Y-102050711D01*
X123590010Y-101784289D01*
X123538034Y-101522987D01*
X123436079Y-101276846D01*
X123288063Y-101055325D01*
X123099675Y-100866937D01*
X123051743Y-100834910D01*
X123165197Y-100834910D01*
X123190000Y-100837353D01*
X123214803Y-100834910D01*
X123288980Y-100827604D01*
X123384156Y-100798733D01*
X123471870Y-100751849D01*
X123548753Y-100688753D01*
X123564574Y-100669475D01*
X124164480Y-100069570D01*
X124183753Y-100053753D01*
X124246849Y-99976870D01*
X124293733Y-99889156D01*
X124322604Y-99793980D01*
X124329910Y-99719803D01*
X124329910Y-99719802D01*
X124332353Y-99695000D01*
X124329910Y-99670197D01*
X124329910Y-98530000D01*
X133010785Y-98530000D01*
X133010785Y-102130000D01*
X133017591Y-102199104D01*
X133037748Y-102265552D01*
X133070481Y-102326791D01*
X133114532Y-102380468D01*
X133168209Y-102424519D01*
X133229448Y-102457252D01*
X133295896Y-102477409D01*
X133365000Y-102484215D01*
X134083890Y-102484215D01*
X134083891Y-105108957D01*
X134081080Y-105137500D01*
X134092299Y-105251417D01*
X134099068Y-105273730D01*
X134125528Y-105360957D01*
X134179488Y-105461909D01*
X134252107Y-105550394D01*
X134274275Y-105568587D01*
X135249130Y-106543443D01*
X135224466Y-106602987D01*
X135172490Y-106864289D01*
X135172490Y-107130711D01*
X135224466Y-107392013D01*
X135326421Y-107638154D01*
X135474437Y-107859675D01*
X135662825Y-108048063D01*
X135884346Y-108196079D01*
X136130487Y-108298034D01*
X136391789Y-108350010D01*
X136658211Y-108350010D01*
X136919513Y-108298034D01*
X137165654Y-108196079D01*
X137387175Y-108048063D01*
X137575563Y-107859675D01*
X137723579Y-107638154D01*
X137825534Y-107392013D01*
X137877510Y-107130711D01*
X137877510Y-106864289D01*
X137825534Y-106602987D01*
X137723579Y-106356846D01*
X137575563Y-106135325D01*
X137387175Y-105946937D01*
X137165654Y-105798921D01*
X136919513Y-105696966D01*
X136658211Y-105644990D01*
X136391789Y-105644990D01*
X136130487Y-105696966D01*
X136070943Y-105721630D01*
X135246110Y-104896798D01*
X135246110Y-102484215D01*
X135965000Y-102484215D01*
X136034104Y-102477409D01*
X136100552Y-102457252D01*
X136161791Y-102424519D01*
X136215468Y-102380468D01*
X136259519Y-102326791D01*
X136292252Y-102265552D01*
X136312409Y-102199104D01*
X136319215Y-102130000D01*
X136319215Y-98530000D01*
X136312409Y-98460896D01*
X136292252Y-98394448D01*
X136259519Y-98333209D01*
X136215468Y-98279532D01*
X136161791Y-98235481D01*
X136100552Y-98202748D01*
X136034104Y-98182591D01*
X135965000Y-98175785D01*
X133365000Y-98175785D01*
X133295896Y-98182591D01*
X133229448Y-98202748D01*
X133168209Y-98235481D01*
X133114532Y-98279532D01*
X133070481Y-98333209D01*
X133037748Y-98394448D01*
X133017591Y-98460896D01*
X133010785Y-98530000D01*
X124329910Y-98530000D01*
X124329910Y-97814803D01*
X124332353Y-97789999D01*
X124322604Y-97691019D01*
X124293733Y-97595844D01*
X124280710Y-97571480D01*
X124246849Y-97508130D01*
X124183753Y-97431247D01*
X124164481Y-97415431D01*
X123481807Y-96732757D01*
X123538034Y-96597013D01*
X123590010Y-96335711D01*
X123590010Y-96069289D01*
X123538034Y-95807987D01*
X123436079Y-95561846D01*
X123288063Y-95340325D01*
X123099675Y-95151937D01*
X122878154Y-95003921D01*
X122705729Y-94932500D01*
X122878154Y-94861079D01*
X123099675Y-94713063D01*
X123288063Y-94524675D01*
X123436079Y-94303154D01*
X123538034Y-94057013D01*
X123590010Y-93795711D01*
X123590010Y-93529289D01*
X123538034Y-93267987D01*
X123436079Y-93021846D01*
X123288063Y-92800325D01*
X123099675Y-92611937D01*
X122878154Y-92463921D01*
X122632013Y-92361966D01*
X122370711Y-92309990D01*
X122104289Y-92309990D01*
X121842987Y-92361966D01*
X121707243Y-92418193D01*
X119754574Y-90465525D01*
X119738753Y-90446247D01*
X119661870Y-90383151D01*
X119574156Y-90336267D01*
X119478980Y-90307396D01*
X119404803Y-90300090D01*
X119380000Y-90297647D01*
X119355197Y-90300090D01*
X99402302Y-90300090D01*
X99377499Y-90297647D01*
X99278519Y-90307396D01*
X99256368Y-90314116D01*
X99183344Y-90336267D01*
X99095630Y-90383151D01*
X99018747Y-90446247D01*
X99002936Y-90465513D01*
X95780257Y-93688193D01*
X95644513Y-93631966D01*
X95383211Y-93579990D01*
X95116789Y-93579990D01*
X94855487Y-93631966D01*
X94609346Y-93733921D01*
X94387825Y-93881937D01*
X94199437Y-94070325D01*
X94051421Y-94291846D01*
X93949466Y-94537987D01*
X93897490Y-94799289D01*
X91842510Y-94799289D01*
X91842510Y-80412510D01*
X149457490Y-80412510D01*
X149457491Y-106928987D01*
M02*
