M48
; DRILL file {KiCad 5.1.6-c6e7f7d~86~ubuntu19.10.1} date Sat May 23 11:31:35 2020
; FORMAT={-:-/ absolute / inch / decimal}
; #@! TF.CreationDate,2020-05-23T11:31:35-04:00
; #@! TF.GenerationSoftware,Kicad,Pcbnew,5.1.6-c6e7f7d~86~ubuntu19.10.1
; #@! TF.FileFunction,Plated,1,2,PTH
FMAT,2
INCH
T1C0.0394
T2C0.0591
%
G90
G05
T1
X5.7Y-4.3125
X5.7Y-4.4125
X5.7Y-4.5125
X5.8Y-4.3125
X5.8Y-4.4125
X5.8Y-4.5125
X5.1875Y-4.85
X5.2875Y-4.85
X5.3875Y-4.85
T2
X3.75Y-3.7375
X4.5875Y-3.5
X4.5875Y-3.6375
X4.5875Y-3.7375
X4.5875Y-3.8375
X4.8125Y-3.5
X4.8125Y-3.6875
X4.8125Y-3.7875
X4.8125Y-3.8875
X4.8125Y-4.0125
X5.2875Y-4.625
X5.5125Y-4.725
X5.6375Y-3.4375
X5.6375Y-3.5625
X5.6375Y-4.0125
X5.7Y-4.175
X5.8Y-4.175
T0
M30
